<svg width="24" height="34" viewBox="0 0 24 34" fill="none" xmlns="http://www.w3.org/2000/svg">
<path fill-rule="evenodd" clip-rule="evenodd" d="M2 17C2 16.2176 2.44772 15.5834 3 15.5834H21C21.5523 15.5834 22 16.2176 22 17C22 17.7824 21.5523 18.4167 21 18.4167H3C2.44772 18.4167 2 17.7824 2 17Z" fill="#69B99D"/>
<path fill-rule="evenodd" clip-rule="evenodd" d="M2 8.50004C2 7.71764 2.44772 7.08337 3 7.08337H21C21.5523 7.08337 22 7.71764 22 8.50004C22 9.28244 21.5523 9.91671 21 9.91671H3C2.44772 9.91671 2 9.28244 2 8.50004Z" fill="#69B99D"/>
<path fill-rule="evenodd" clip-rule="evenodd" d="M2 25.5C2 24.7176 2.44772 24.0834 3 24.0834H21C21.5523 24.0834 22 24.7176 22 25.5C22 26.2824 21.5523 26.9167 21 26.9167H3C2.44772 26.9167 2 26.2824 2 25.5Z" fill="#69B99D"/>
</svg>
